REM DIRINDEX 1\3,1\2\4,1\2\5,1\2\6
REM DIRNAME folder01,folder02,folder03,folder04,folder05,folder06
TITLE ""
FILE "084.mp3" MP3
  TRACK 01 AUDIO
    TITLE "4:cjc137_3447"
    INDEX 01 00:00:00
  TRACK 02 AUDIO
    TITLE "0:"
    INDEX 01 00:01:13
  TRACK 03 AUDIO
    TITLE "6:cjc137_3448"
    INDEX 01 00:01:19
  TRACK 04 AUDIO
    TITLE "0:"
    INDEX 01 00:02:57
  TRACK 05 AUDIO
    TITLE "5:cjc137_3449"
    INDEX 01 00:02:63
  TRACK 06 AUDIO
    TITLE "0:"
    INDEX 01 00:04:01
  TRACK 07 AUDIO
    TITLE "4:cjc137_3450"
    INDEX 01 00:05:09
  TRACK 08 AUDIO
    TITLE "0:"
    INDEX 01 00:06:20
  TRACK 09 AUDIO
    TITLE "6:cjc137_3451"
    INDEX 01 00:06:28
  TRACK 10 AUDIO
    TITLE "0:"
    INDEX 01 00:07:15
  TRACK 11 AUDIO
    TITLE "5:cjc137_3452"
    INDEX 01 00:07:21
  TRACK 12 AUDIO
    TITLE "0:"
    INDEX 01 00:08:32
  TRACK 13 AUDIO
    TITLE "4:cjc137_3453"
    INDEX 01 00:09:42
  TRACK 14 AUDIO
    TITLE "0:"
    INDEX 01 00:10:72
  TRACK 15 AUDIO
    TITLE "6:cjc137_3454"
    INDEX 01 00:11:07
  TRACK 16 AUDIO
    TITLE "0:"
    INDEX 01 00:12:28
  TRACK 17 AUDIO
    TITLE "5:cjc137_3455"
    INDEX 01 00:12:32
  TRACK 18 AUDIO
    TITLE "0:"
    INDEX 01 00:13:63
  TRACK 19 AUDIO
    TITLE "4:cjc137_3456"
    INDEX 01 00:14:72
  TRACK 20 AUDIO
    TITLE "0:"
    INDEX 01 00:16:02
  TRACK 21 AUDIO
    TITLE "6:cjc137_3457"
    INDEX 01 00:16:08
  TRACK 22 AUDIO
    TITLE "0:"
    INDEX 01 00:17:18
  TRACK 23 AUDIO
    TITLE "5:cjc137_3458"
    INDEX 01 00:17:25
  TRACK 24 AUDIO
    TITLE "0:"
    INDEX 01 00:18:27
  TRACK 25 AUDIO
    TITLE "4:cjc137_3459"
    INDEX 01 00:19:38
  TRACK 26 AUDIO
    TITLE "0:"
    INDEX 01 00:20:37
  TRACK 27 AUDIO
    TITLE "6:cjc137_3460"
    INDEX 01 00:20:45
  TRACK 28 AUDIO
    TITLE "0:"
    INDEX 01 00:21:25
  TRACK 29 AUDIO
    TITLE "5:cjc137_3461"
    INDEX 01 00:21:31
  TRACK 30 AUDIO
    TITLE "0:"
    INDEX 01 00:22:32
  TRACK 31 AUDIO
    TITLE "4:cjc137_3462"
    INDEX 01 00:23:40
  TRACK 32 AUDIO
    TITLE "0:"
    INDEX 01 00:24:63
  TRACK 33 AUDIO
    TITLE "6:cjc137_3463"
    INDEX 01 00:24:69
  TRACK 34 AUDIO
    TITLE "0:"
    INDEX 01 00:25:58
  TRACK 35 AUDIO
    TITLE "5:cjc137_3464"
    INDEX 01 00:25:62
  TRACK 36 AUDIO
    TITLE "0:"
    INDEX 01 00:27:12
  TRACK 37 AUDIO
    TITLE "4:cjc137_3465"
    INDEX 01 00:28:19
  TRACK 38 AUDIO
    TITLE "0:"
    INDEX 01 00:29:19
  TRACK 39 AUDIO
    TITLE "6:cjc137_3466"
    INDEX 01 00:29:25
  TRACK 40 AUDIO
    TITLE "0:"
    INDEX 01 00:30:24
  TRACK 41 AUDIO
    TITLE "5:cjc137_3467"
    INDEX 01 00:30:28
  TRACK 42 AUDIO
    TITLE "0:"
    INDEX 01 00:31:29
  TRACK 43 AUDIO
    TITLE "4:cjc137_3468"
    INDEX 01 00:32:39
  TRACK 44 AUDIO
    TITLE "0:"
    INDEX 01 00:33:50
  TRACK 45 AUDIO
    TITLE "6:cjc137_3469"
    INDEX 01 00:33:58
  TRACK 46 AUDIO
    TITLE "0:"
    INDEX 01 00:35:06
  TRACK 47 AUDIO
    TITLE "5:cjc137_3470"
    INDEX 01 00:35:12
  TRACK 48 AUDIO
    TITLE "0:"
    INDEX 01 00:36:23
  TRACK 49 AUDIO
    TITLE "4:cjc137_3471"
    INDEX 01 00:37:34
  TRACK 50 AUDIO
    TITLE "0:"
    INDEX 01 00:38:47
  TRACK 51 AUDIO
    TITLE "6:cjc137_3472"
    INDEX 01 00:38:53
  TRACK 52 AUDIO
    TITLE "0:"
    INDEX 01 00:39:54
  TRACK 53 AUDIO
    TITLE "5:cjc137_3473"
    INDEX 01 00:39:60
  TRACK 54 AUDIO
    TITLE "0:"
    INDEX 01 00:40:73
  TRACK 55 AUDIO
    TITLE "4:cjc137_3474"
    INDEX 01 00:42:06
  TRACK 56 AUDIO
    TITLE "0:"
    INDEX 01 00:43:11
  TRACK 57 AUDIO
    TITLE "6:cjc137_3475"
    INDEX 01 00:43:17
  TRACK 58 AUDIO
    TITLE "0:"
    INDEX 01 00:44:36
  TRACK 59 AUDIO
    TITLE "5:cjc137_3476"
    INDEX 01 00:44:42
  TRACK 60 AUDIO
    TITLE "0:"
    INDEX 01 00:45:47
  TRACK 61 AUDIO
    TITLE "4:cjc137_3477"
    INDEX 01 00:46:54
  TRACK 62 AUDIO
    TITLE "0:"
    INDEX 01 00:47:60
  TRACK 63 AUDIO
    TITLE "6:cjc137_3478"
    INDEX 01 00:47:68
  TRACK 64 AUDIO
    TITLE "0:"
    INDEX 01 00:48:53
  TRACK 65 AUDIO
    TITLE "5:cjc137_3479"
    INDEX 01 00:48:57
  TRACK 66 AUDIO
    TITLE "0:"
    INDEX 01 00:49:63
  TRACK 67 AUDIO
    TITLE "4:cjc137_3480"
    INDEX 01 00:50:72
  TRACK 68 AUDIO
    TITLE "0:"
    INDEX 01 00:52:08
  TRACK 69 AUDIO
    TITLE "6:cjc137_3481"
    INDEX 01 00:52:14
  TRACK 70 AUDIO
    TITLE "0:"
    INDEX 01 00:53:37
  TRACK 71 AUDIO
    TITLE "5:cjc137_3482"
    INDEX 01 00:53:43
  TRACK 72 AUDIO
    TITLE "0:"
    INDEX 01 00:54:52
  TRACK 73 AUDIO
    TITLE "4:cjc137_3483"
    INDEX 01 00:55:61
  TRACK 74 AUDIO
    TITLE "0:"
    INDEX 01 00:57:03
  TRACK 75 AUDIO
    TITLE "6:cjc137_3484"
    INDEX 01 00:57:09
  TRACK 76 AUDIO
    TITLE "0:"
    INDEX 01 00:58:36
  TRACK 77 AUDIO
    TITLE "5:cjc137_3485"
    INDEX 01 00:58:40
  TRACK 78 AUDIO
    TITLE "0:"
    INDEX 01 00:59:57
  TRACK 79 AUDIO
    TITLE "4:cjc137_3486"
    INDEX 01 01:00:64
  TRACK 80 AUDIO
    TITLE "0:"
    INDEX 01 01:01:68
  TRACK 81 AUDIO
    TITLE "6:cjc137_3487"
    INDEX 01 01:02:08
  TRACK 82 AUDIO
    TITLE "0:"
    INDEX 01 01:02:73
  TRACK 83 AUDIO
    TITLE "5:cjc137_3488"
    INDEX 01 01:03:06
  TRACK 84 AUDIO
    TITLE "0:"
    INDEX 01 01:04:09
